<svg width="40" height="40" viewBox="0 0 40 40" fill="none" xmlns="http://www.w3.org/2000/svg">
<rect width="40" height="40" rx="20" fill="white"/>
<path d="M32.4325 16.4039C32.2709 16.3918 32.1093 16.4666 31.9549 16.6089C30.884 11.1315 26.0603 7 20.2694 7C15.0284 7 10.5834 10.3863 8.98911 15.0894C8.84681 14.8892 8.6828 14.7686 8.4995 14.7542C7.81694 14.7035 7.15609 16.1362 7.02344 17.9547C6.89078 19.7732 7.33457 21.2879 8.01713 21.3361C8.20284 21.3506 8.38373 21.2517 8.55738 21.0684C9.19412 24.5439 11.3383 27.4912 14.288 29.2085C14.9778 29.6088 13.767 32.7636 14.534 33.0216C15.7255 33.422 18.9429 30.8172 20.267 30.8172C25.4983 30.8172 29.9386 27.443 31.5377 22.7543C31.6607 22.8918 31.7957 22.9762 31.9453 22.9883C32.6278 23.0389 33.2887 21.6063 33.4213 19.7877C33.554 17.9692 33.1102 16.4545 32.4276 16.4063L32.4325 16.4039Z" fill="#181B21"/>
<path d="M28.4866 16.99C28.2213 16.3725 27.8523 15.8298 27.3892 15.3716C26.9262 14.9133 26.3787 14.5491 25.7636 14.2838C24.536 13.7581 23.0382 13.7508 21.7937 14.2838C21.7816 14.2887 21.772 14.2935 21.7599 14.2983C21.4946 14.0571 21.2076 13.8425 20.9085 13.6543C20.6119 13.4686 20.3297 13.3191 20.0427 13.1961C18.6004 12.5787 16.8397 12.569 15.3781 13.1961C14.6546 13.5072 14.013 13.9365 13.4679 14.472C12.9229 15.0098 12.4911 15.649 12.18 16.3749C11.8689 17.1033 11.7121 17.8848 11.7121 18.7C11.7121 19.5152 11.8689 20.3159 12.18 21.0419C12.4911 21.7679 12.9253 22.407 13.4679 22.9449C14.013 23.4827 14.6546 23.912 15.3781 24.2207C16.1041 24.5319 16.8856 24.6886 17.7008 24.6886C18.516 24.6886 19.3167 24.5319 20.0427 24.2207C20.5154 24.0181 20.9592 23.7601 21.362 23.4513C21.5163 23.5382 21.6562 23.6057 21.7913 23.666C23.0358 24.199 24.5336 24.1918 25.7612 23.666C26.3763 23.4031 26.9237 23.0365 27.3868 22.5807C27.8499 22.1248 28.2189 21.5797 28.4842 20.9623C28.7495 20.3449 28.8822 19.6744 28.8822 18.9677C28.8822 18.261 28.7471 17.6074 28.4842 16.99H28.4866ZM22.6692 22.0886C22.8935 21.7606 23.0865 21.4085 23.2432 21.0419C23.2553 21.0129 23.2674 20.9816 23.277 20.9527L23.3156 20.8296C23.4048 20.451 23.4579 20.2243 23.1709 19.9373C22.961 19.7274 22.662 19.6406 22.3726 19.7009C22.0783 19.7636 21.8371 19.9686 21.731 20.2508C21.7141 20.2942 21.6972 20.3376 21.6779 20.3786C21.5766 20.6078 21.4536 20.8369 21.3065 21.0564C21.1425 21.3072 20.9544 21.5363 20.7518 21.7365C20.3635 22.1176 19.9028 22.4239 19.3842 22.6458C18.3592 23.0823 17.0881 23.092 16.0414 22.6458C15.5204 22.4239 15.0646 22.12 14.6835 21.7389C14.3024 21.3578 13.9913 20.8996 13.7646 20.381C13.5379 19.8625 13.4245 19.2981 13.4245 18.7024C13.4245 18.1067 13.5379 17.5592 13.7646 17.043C13.9913 16.5221 14.3 16.0614 14.6835 15.6731C15.0646 15.2872 15.5204 14.9785 16.039 14.7566C16.5575 14.5371 17.1171 14.4237 17.7008 14.4237C18.2844 14.4237 18.8633 14.5347 19.3818 14.7566C19.6254 14.8603 19.8618 14.9881 20.0861 15.1352C20.1512 15.1786 20.2139 15.2245 20.2766 15.2703C20.2405 15.3041 20.2043 15.3378 20.1681 15.374L20.0692 15.4705C19.6568 15.8708 19.2106 16.3195 19.0996 16.5799C18.9742 16.879 19.0683 17.2287 19.3336 17.4506C19.6013 17.6749 19.9559 17.6966 20.2573 17.5013C20.5637 17.3035 21.1521 16.5486 21.251 16.4183C21.5694 16.0976 21.9481 15.8419 22.3798 15.6586C23.2577 15.2848 24.3213 15.292 25.1824 15.6586C25.6165 15.8443 26.0024 16.1024 26.328 16.428C26.6536 16.7536 26.9165 17.1395 27.1046 17.576C27.2952 18.0102 27.3892 18.4781 27.3892 18.9677C27.3892 19.4573 27.2928 19.9397 27.1046 20.3738C26.9141 20.8104 26.6536 21.1938 26.328 21.5122C26.0024 21.833 25.6165 22.0886 25.18 22.2744C24.3623 22.6241 23.3469 22.6482 22.498 22.3226C22.5559 22.2454 22.6137 22.1658 22.6692 22.0862V22.0886Z" fill="#88D48D"/>
</svg>
