<svg width="24" height="24" viewBox="0 0 24 24" fill="none" xmlns="http://www.w3.org/2000/svg">
<rect width="24" height="24" fill="white"/>
<g clip-path="url(#clip0_35_167)">
<mask id="mask0_35_167" style="mask-type:alpha" maskUnits="userSpaceOnUse" x="5" y="5" width="14" height="14">
<path d="M5.29289 5.29289C5.68342 4.90237 6.31658 4.90237 6.70711 5.29289L12 10.585L17.2929 5.29289C17.6534 4.93241 18.2206 4.90468 18.6129 5.2097L18.7071 5.29289C19.0976 5.68342 19.0976 6.31658 18.7071 6.70711L13.415 12L18.7071 17.2929C19.0676 17.6534 19.0953 18.2206 18.7903 18.6129L18.7071 18.7071C18.3166 19.0976 17.6834 19.0976 17.2929 18.7071L12 13.415L6.70711 18.7071C6.34662 19.0676 5.77939 19.0953 5.3871 18.7903L5.29289 18.7071C4.90237 18.3166 4.90237 17.6834 5.29289 17.2929L10.585 12L5.29289 6.70711C4.93241 6.34662 4.90468 5.77939 5.2097 5.3871L5.29289 5.29289Z" fill="white"/>
</mask>
<g mask="url(#mask0_35_167)">
<path d="M5.29289 5.29289C5.68342 4.90237 6.31658 4.90237 6.70711 5.29289L12 10.585L17.2929 5.29289C17.6534 4.93241 18.2206 4.90468 18.6129 5.2097L18.7071 5.29289C19.0976 5.68342 19.0976 6.31658 18.7071 6.70711L13.415 12L18.7071 17.2929C19.0676 17.6534 19.0953 18.2206 18.7903 18.6129L18.7071 18.7071C18.3166 19.0976 17.6834 19.0976 17.2929 18.7071L12 13.415L6.70711 18.7071C6.34662 19.0676 5.77939 19.0953 5.3871 18.7903L5.29289 18.7071C4.90237 18.3166 4.90237 17.6834 5.29289 17.2929L10.585 12L5.29289 6.70711C4.93241 6.34662 4.90468 5.77939 5.2097 5.3871L5.29289 5.29289Z" fill="#88D48D"/>
<path d="M24 0H0V24H24V0Z" fill="#88D48D"/>
</g>
</g>
<defs>
<clipPath id="clip0_35_167">
<rect width="14" height="14" fill="white" transform="translate(5 5)"/>
</clipPath>
</defs>
</svg>
